<svg width="200" height="200" xmlns="http://www.w3.org/2000/svg">
 <!-- Created with Method Draw - http://github.com/duopixel/Method-Draw/ -->

 <g>
  <title>background</title>
  <rect fill="none" id="canvas_background" height="202" width="202" y="-1" x="-1"/>
  <g display="none" id="canvasGrid">
   <rect fill="url(#gridpattern)" stroke-width="0" y="0" x="0" height="100%" width="100%" id="svg_1"/>
  </g>
 </g>
 <g>
  <title>Layer 1</title>
  <rect rx="8" id="svg_2" height="168" width="168" y="16" x="16" stroke-width="0" stroke="#000" fill="#efefef"/>
  <rect rx="4" id="svg_5" height="23.928571" width="23.928571" y="34.196426" x="33" stroke-width="0" fill="#37474f" stroke="#000"/>
  <rect rx="4" id="svg_6" height="23.928571" width="23.928571" y="34.196426" x="69.690476" stroke-width="0" fill="#37474f" stroke="#000"/>
  <rect rx="4" id="svg_8" height="60.619047" width="60.619047" y="34.196426" x="106.380952" stroke-width="0" fill="#f44336" stroke="#000"/>
  <rect rx="4" id="svg_9" height="23.928571" width="23.928571" y="71.886902" x="33" stroke-width="0" fill="#37474f" stroke="#000"/>
  <rect rx="4" id="svg_10" height="23.928571" width="23.928571" y="70.886902" x="69.690476" stroke-width="0" fill="#37474f" stroke="#000"/>
  <rect rx="4" id="svg_13" height="23.928571" width="23.928571" y="106.184521" x="33" stroke-width="0" fill="#37474f" stroke="#000"/>
  <rect rx="4" id="svg_14" height="23.928571" width="23.928571" y="106.184521" x="69.690476" stroke-width="0" fill="#37474f" stroke="#000"/>
  <rect rx="4" id="svg_15" height="23.928571" width="23.928571" y="106.184521" x="143.071428" stroke-width="0" fill="#37474f" stroke="#000"/>
  <rect rx="4" id="svg_16" height="23.928571" width="23.928571" y="106.184521" x="106.380952" stroke-width="0" fill="#37474f" stroke="#000"/>
  <rect rx="4" id="svg_17" height="23.928571" width="23.928571" y="142.874997" x="33" stroke-width="0" fill="#37474f" stroke="#000"/>
  <rect rx="4" id="svg_18" height="23.928571" width="23.928571" y="142.874997" x="69.690476" stroke-width="0" fill="#37474f" stroke="#000"/>
  <rect rx="4" id="svg_19" height="23.928571" width="23.928571" y="142.874997" x="143.071428" stroke-width="0" fill="#37474f" stroke="#000"/>
  <rect rx="4" id="svg_20" height="23.928571" width="23.928571" y="142.874997" x="106.380952" stroke-width="0" fill="#37474f" stroke="#000"/>
 </g>
</svg>