<?xml version="1.0" standalone="no"?>
<!DOCTYPE svg PUBLIC "-//W3C//DTD SVG 20010904//EN"
 "http://www.w3.org/TR/2001/REC-SVG-20010904/DTD/svg10.dtd">
<svg version="1.0" xmlns="http://www.w3.org/2000/svg"
 width="700.000000pt" height="700.000000pt" viewBox="0 0 700.000000 700.000000"
 preserveAspectRatio="xMidYMid meet">
<metadata>
Created by potrace 1.11, written by Peter Selinger 2001-2013
</metadata>
<g transform="translate(0.000000,700.000000) scale(0.100000,-0.100000)"
fill="#000000" stroke="none">
<path d="M1235 5790 c-33 -13 -66 -56 -76 -97 -11 -50 -11 -567 1 -618 6 -25
22 -52 44 -72 l36 -33 325 0 c360 0 368 1 405 63 19 30 20 52 20 350 0 351 -1
360 -63 397 -30 19 -52 20 -352 19 -176 0 -329 -4 -340 -9z"/>
<path d="M2504 5781 c-61 -37 -64 -56 -64 -395 0 -341 3 -360 62 -396 31 -19
50 -20 360 -20 l326 0 33 27 c57 48 59 64 59 380 0 159 -5 304 -10 324 -5 19
-24 48 -41 65 l-30 29 -332 3 c-311 2 -334 1 -363 -17z"/>
<path d="M3804 5790 c-39 -16 -72 -67 -79 -122 -3 -29 -5 -465 -3 -968 3
-1033 -2 -963 81 -1001 40 -18 80 -19 981 -19 916 0 941 0 981 20 81 39 75
-41 75 1042 0 937 -1 964 -20 995 -40 67 21 63 -1037 62 -527 0 -967 -4 -979
-9z"/>
<path d="M2512 4500 c-18 -11 -41 -34 -52 -52 -19 -31 -20 -51 -20 -349 0
-447 -28 -419 420 -419 350 0 357 1 398 81 22 43 23 48 20 354 -4 435 27 405
-425 405 -290 0 -310 -1 -341 -20z"/>
<path d="M1234 4470 c-39 -16 -72 -67 -79 -122 -4 -29 -5 -177 -3 -328 3 -305
4 -310 71 -350 30 -19 52 -20 350 -20 351 0 360 1 397 63 19 30 20 52 20 350
0 351 -1 360 -63 397 -30 19 -52 20 -352 19 -176 0 -329 -4 -341 -9z"/>
<path d="M1235 3270 c-33 -13 -66 -56 -76 -97 -11 -50 -11 -567 1 -617 5 -22
23 -53 39 -70 l31 -31 330 -3 c365 -3 372 -2 410 61 19 30 20 52 20 350 0 351
-1 360 -63 397 -30 19 -52 20 -352 19 -176 0 -329 -4 -340 -9z"/>
<path d="M2504 3261 c-61 -37 -64 -56 -64 -395 0 -341 3 -360 62 -396 31 -19
50 -20 360 -20 l327 0 35 31 c20 17 40 47 46 67 6 21 10 160 10 325 0 311 -3
329 -55 377 l-27 25 -331 3 c-311 2 -334 1 -363 -17z"/>
<path d="M3805 3270 c-27 -11 -61 -49 -74 -83 -7 -18 -11 -139 -11 -323 0
-324 2 -339 59 -387 l33 -27 326 0 c310 0 329 1 360 20 59 36 62 55 62 396 0
339 -3 358 -64 395 -29 18 -55 19 -351 18 -176 0 -329 -4 -340 -9z"/>
<path d="M5073 3261 c-62 -38 -63 -47 -63 -398 0 -298 1 -320 20 -350 38 -63
45 -64 410 -61 l330 3 31 31 c16 17 34 48 39 70 5 21 10 161 10 309 0 149 -5
288 -10 309 -5 22 -23 53 -39 70 l-31 31 -333 3 c-316 2 -334 1 -364 -17z"/>
<path d="M1230 1981 c-19 -10 -44 -34 -55 -52 -19 -32 -20 -52 -20 -349 0
-357 1 -362 80 -400 38 -19 63 -20 338 -20 322 0 339 2 387 55 l25 27 0 338 0
338 -25 27 c-51 54 -55 55 -387 55 -282 0 -311 -2 -343 -19z"/>
<path d="M2512 1980 c-18 -11 -41 -34 -52 -52 -19 -31 -20 -51 -20 -349 0
-447 -28 -419 420 -419 350 0 357 1 398 81 22 43 23 48 20 354 -4 435 27 405
-425 405 -290 0 -310 -1 -341 -20z"/>
<path d="M3804 1986 c-17 -8 -42 -29 -55 -47 l-24 -34 0 -325 c0 -451 -31
-420 417 -420 338 0 351 2 395 69 23 34 23 38 23 350 0 298 -1 318 -20 349
-11 18 -34 41 -52 52 -31 19 -51 20 -343 20 -238 -1 -317 -4 -341 -14z"/>
<path d="M5085 1984 c-16 -9 -39 -28 -50 -42 -19 -26 -20 -43 -20 -364 l0
-336 25 -27 c48 -53 65 -55 387 -55 445 0 418 -27 418 420 0 450 30 420 -420
419 -256 0 -315 -3 -340 -15z"/>
</g>
</svg>
