<?xml version="1.0" standalone="no"?>
<!DOCTYPE svg PUBLIC "-//W3C//DTD SVG 20010904//EN"
 "http://www.w3.org/TR/2001/REC-SVG-20010904/DTD/svg10.dtd">
<svg version="1.0" xmlns="http://www.w3.org/2000/svg"
 width="700.000000pt" height="700.000000pt" viewBox="0 0 700.000000 700.000000"
 preserveAspectRatio="xMidYMid meet">
<metadata>
Created by potrace 1.11, written by Peter Selinger 2001-2013
</metadata>
<g transform="translate(0.000000,700.000000) scale(0.100000,-0.100000)"
fill="#000000" stroke="none">
<path d="M640 6422 c-19 -9 -45 -32 -57 -51 -23 -34 -23 -34 -23 -450 0 -464
0 -462 69 -508 l34 -23 422 0 422 0 34 23 c69 46 69 44 69 508 0 416 0 416
-23 450 -46 69 -45 69 -502 69 -370 0 -413 -2 -445 -18z"/>
<path d="M2242 6420 c-18 -11 -41 -34 -52 -52 -19 -32 -20 -52 -20 -448 0
-457 0 -458 63 -504 28 -20 39 -21 462 -21 423 0 434 1 462 21 64 47 64 45 61
511 -3 408 -4 422 -24 450 -46 63 -47 63 -504 63 -396 0 -416 -1 -448 -20z"/>
<path d="M3865 6426 c-16 -7 -41 -26 -55 -41 l-25 -27 0 -1243 c0 -1242 0
-1244 21 -1272 11 -15 36 -36 55 -45 32 -17 112 -18 1254 -18 1200 0 1221 0
1253 20 18 11 41 34 52 52 20 33 20 52 17 1265 -2 1228 -2 1232 -23 1260 -11
15 -36 36 -55 45 -32 17 -112 18 -1249 18 -990 -1 -1221 -3 -1245 -14z"/>
<path d="M640 4812 c-19 -9 -45 -32 -57 -51 -23 -34 -23 -34 -23 -450 0 -463
0 -462 68 -508 34 -22 36 -22 455 -23 405 0 423 1 455 20 18 11 41 34 52 52
19 32 20 52 20 453 0 401 -1 421 -20 453 -11 18 -34 41 -52 52 -32 19 -52 20
-448 20 -375 0 -418 -2 -450 -18z"/>
<path d="M2239 4807 c-70 -47 -70 -42 -67 -519 l3 -426 25 -27 c52 -56 46 -55
492 -55 460 0 459 0 505 69 l23 34 0 422 0 422 -23 34 c-46 69 -44 69 -508 69
-416 0 -416 0 -450 -23z"/>
<path d="M636 3305 c-77 -39 -76 -35 -76 -505 0 -469 -1 -465 76 -505 38 -20
55 -20 454 -20 408 0 416 1 450 22 67 42 65 25 68 490 3 473 3 476 -68 518
-34 19 -50 20 -450 20 -398 1 -416 0 -454 -20z"/>
<path d="M2283 3319 c-47 -9 -78 -33 -97 -73 -15 -32 -16 -79 -14 -458 l3
-423 24 -32 c43 -57 48 -57 496 -58 394 0 411 0 449 20 77 40 76 36 76 505 0
386 -1 418 -19 450 -10 19 -34 44 -52 55 -32 19 -52 20 -434 20 -220 1 -415
-2 -432 -6z"/>
<path d="M3856 3305 c-77 -39 -76 -35 -76 -505 0 -469 -1 -466 76 -505 37 -19
57 -20 454 -20 395 0 417 1 449 20 19 11 42 36 52 55 18 32 19 64 19 448 0
462 0 462 -69 504 -36 23 -38 23 -451 23 -398 1 -416 0 -454 -20z"/>
<path d="M5488 3320 c-34 -14 -68 -44 -82 -75 -14 -28 -16 -90 -16 -444 0
-396 1 -413 21 -452 37 -74 38 -74 510 -74 454 1 454 1 495 62 18 26 19 55 22
451 3 473 3 471 -67 514 -36 23 -37 23 -453 23 -230 0 -423 -2 -430 -5z"/>
<path d="M636 1695 c-76 -39 -76 -36 -76 -503 0 -462 0 -462 69 -504 36 -23
37 -23 456 -23 401 0 422 1 454 20 19 11 42 36 52 55 18 32 19 64 19 450 0
386 -1 418 -19 450 -10 19 -33 44 -52 55 -32 19 -54 20 -449 20 -397 0 -417 0
-454 -20z"/>
<path d="M2295 1712 c-45 -7 -78 -27 -100 -60 l-24 -35 -1 -421 c0 -476 -1
-472 76 -511 37 -19 57 -20 454 -20 412 1 416 1 452 23 68 42 68 42 68 504 0
384 -1 416 -19 448 -10 19 -33 44 -52 55 -32 19 -54 20 -434 20 -220 0 -409
-1 -420 -3z"/>
<path d="M3856 1695 c-77 -39 -76 -36 -76 -505 0 -386 1 -418 19 -450 10 -19
34 -44 52 -55 33 -19 52 -20 454 -20 418 0 420 0 456 23 69 42 69 42 69 504 0
384 -1 416 -19 448 -10 19 -33 44 -52 55 -32 19 -54 20 -449 20 -397 0 -417 0
-454 -20z"/>
<path d="M5523 1714 c-4 -1 -20 -5 -36 -8 -36 -8 -85 -61 -92 -100 -3 -17 -5
-215 -3 -441 3 -388 4 -411 22 -436 51 -66 27 -63 491 -64 405 0 421 0 459 20
78 41 77 35 74 515 -3 472 -2 460 -71 497 -29 15 -74 17 -434 18 -221 0 -405
0 -410 -1z"/>
</g>
</svg>
